<svg viewBox="0 0 120 6.666666666666667" class="d-block" xmlns="http://www.w3.org/2000/svg" xmlns:xlink="http://www.w3.org/1999/xlink">
  <rect x="0" y="0" width="8" height="100%" style="fill:#004CD7"/><rect x="8" y="0" width="8" height="100%" style="fill:#833CAC"/><rect x="16" y="0" width="8" height="100%" style="fill:#FAFF8B"/><rect x="24" y="0" width="8" height="100%" style="fill:#301A3C"/><rect x="32" y="0" width="8" height="100%" style="fill:#170EA5"/><rect x="40" y="0" width="8" height="100%" style="fill:#10F693"/><rect x="48" y="0" width="8" height="100%" style="fill:#C2AF51"/><rect x="56" y="0" width="8" height="100%" style="fill:#FF3976"/><rect x="64" y="0" width="8" height="100%" style="fill:#179463"/><rect x="72" y="0" width="8" height="100%" style="fill:#350D20"/><rect x="80" y="0" width="8" height="100%" style="fill:#5934D3"/><rect x="88" y="0" width="8" height="100%" style="fill:#E9A4C7"/><rect x="96" y="0" width="8" height="100%" style="fill:#FF3845"/><rect x="104" y="0" width="8" height="100%" style="fill:#350D20"/><rect x="112" y="0" width="8" height="100%" style="fill:#FF3976"/>
</svg>