<svg xmlns="http://www.w3.org/2000/svg" height="137.416" width="168.373"><g transform="translate(-11328.988 -2421.613)"><path d="M11413.47 2437.816v36.562M11482.295 2487.559c7.616-.331 13.152-.791 13.239 7.748s.766 25.038-3.686 33.5c-3.073 5.841-24.3 1.667-24.3 1.667l5.379-44zM11351.33 2535.643c-7.419 1.749-15.919 2.991-17.6-5.381s-2.838-27.219-2.971-33.819c-.234-11.722 24.014-6.843 24.014-6.843l2.938 44.235z" fill="#85c3e9" stroke="#3e4147" stroke-linecap="round" stroke-linejoin="round" stroke-width="3.536"/><path d="M11371.137 2554.9c-23.437-2.142-21.391-7.666-24-32.47s-.8-24.972-.8-38.026 10.925-22.072 30.526-23.073c50.942-2.6 89.446-4.982 98.585 8.073s5.521 50.151 4.89 65.859c-.842 20.942-28.257 20.942-28.257 20.942s-32.806 3.09-80.944-1.305z" fill="#d8e9f7" stroke="#3e4147" stroke-linecap="round" stroke-linejoin="round" stroke-width="3.536"/><ellipse cx="11420.635" cy="2468.993" fill="#fff" rx="19.566" ry="2.795"/><circle cx="11446.946" cy="2496.975" fill="#c4d7e9" r="19.172"/><path d="M11480.084 2537.724c-8.325 4.781-21.589 6.4-45.665 7.6-39.315 1.966-58.973-1.31-66.836-5.242s-9.174-17.037-9.83-39.316 4.431-36.69 22.332-39.607l-3.227.165c-19.6 1-30.525 10.018-30.525 23.073s-1.809 13.222.8 38.026.565 30.328 24 32.47c48.139 4.4 80.94 1.3 80.94 1.3s25.196-.005 28.011-18.469z" fill="#c4d7e9"/><g stroke="#3e4147" stroke-linecap="round" stroke-linejoin="round"><path d="M11371.137 2554.9c-23.437-2.142-21.391-7.666-24-32.47s-.8-24.972-.8-38.026 10.925-22.072 30.526-23.073c50.942-2.6 89.446-4.982 98.585 8.073s5.521 50.151 4.89 65.859c-.842 20.942-28.257 20.942-28.257 20.942s-32.806 3.09-80.944-1.305z" fill="none" stroke-width="3.536"/><circle cx="11450.726" cy="2491.77" fill="#85c3e9" r="16.675" stroke-width="2.616"/><circle cx="11450.725" cy="2491.77" fill="#f3783c" r="11.409" stroke-width="2.616"/><ellipse cx="11412.875" cy="2434.59" fill="#85c3e9" rx="12.369" ry="11.112" stroke-width="3.73"/><circle cx="11362.8" cy="2476.139" fill="#85c3e9" r="2.8" stroke-width="2.916"/><circle cx="11464.467" cy="2472.908" fill="#85c3e9" r="2.8" stroke-width="2.916"/><circle cx="11465.759" cy="2542.266" fill="#85c3e9" r="2.8" stroke-width="2.916"/><circle cx="11360.646" cy="2543.989" fill="#85c3e9" r="2.8" stroke-width="2.916"/></g><circle cx="11453.633" cy="2486.726" fill="#fdcb55" r="2.857"/><circle cx="11379.274" cy="2497.564" fill="#c4d7e9" r="19.172"/><path d="M11415.823 2537.146c-8.755 0-17.2-5.625-23.185-15.46a5.87 5.87 0 1110.027-6.106c3.75 6.159 8.665 9.826 13.161 9.826h.074c6.056-.054 11.128-6.568 14.316-12.024a5.87 5.87 0 0110.135 5.925c-8.558 14.64-17.964 17.782-24.347 17.839z" fill="#85c3e9"/><path d="M11415.823 2537.146c-8.755 0-17.2-5.625-23.185-15.46a5.87 5.87 0 1110.027-6.106c3.75 6.159 8.665 9.826 13.161 9.826h.074c6.056-.054 11.128-6.568 14.316-12.024a5.87 5.87 0 0110.135 5.925c-8.558 14.64-17.964 17.782-24.347 17.839z" fill="none" stroke="#3e4147" stroke-linecap="round" stroke-linejoin="round" stroke-width="3"/><circle cx="11383.052" cy="2492.359" fill="#85c3e9" r="16.675" stroke="#3e4147" stroke-linecap="round" stroke-linejoin="round" stroke-width="2.616"/><circle cx="11383.053" cy="2492.359" fill="#f3783c" r="11.409" stroke="#3e4147" stroke-linecap="round" stroke-linejoin="round" stroke-width="2.616"/><circle cx="11385.961" cy="2487.314" fill="#fdcb55" r="2.857"/><ellipse cx="2.297" cy="3.341" fill="#f0f6fc" rx="2.297" ry="3.341" transform="rotate(-84.83 7037.185 -5028.671)"/></g></svg>
